<?xml version="1.0" standalone="no"?>
<!DOCTYPE svg PUBLIC "-//W3C//DTD SVG 20010904//EN"
 "http://www.w3.org/TR/2001/REC-SVG-20010904/DTD/svg10.dtd">
<svg version="1.0" xmlns="http://www.w3.org/2000/svg"
 width="225.000000pt" height="225.000000pt" viewBox="0 0 225.000000 225.000000"
 preserveAspectRatio="xMidYMid meet">
<metadata>
Created by potrace 1.11, written by Peter Selinger 2001-2013
</metadata>
<g transform="translate(0.000000,225.000000) scale(0.100000,-0.100000)"
fill="#000000" stroke="none">
<path d="M623 2065 c-150 -75 -231 -134 -334 -242 -98 -103 -132 -163 -218
-384 l-71 -184 1 -110 2 -110 8 69 c13 95 35 178 68 250 45 98 118 176 164
176 13 0 5 -10 -25 -33 -85 -65 -113 -134 -106 -267 4 -67 10 -96 31 -138 27
-50 94 -112 124 -112 20 0 16 -14 -15 -62 -30 -45 -46 -82 -57 -132 -9 -41
-34 -75 -79 -107 -57 -42 -69 -39 -50 13 8 22 12 43 10 45 -2 2 -20 -19 -40
-47 l-36 -50 0 -175 c0 -133 3 -175 13 -175 31 0 116 51 154 92 81 89 103 154
113 336 7 140 22 197 35 136 46 -221 125 -408 259 -609 41 -60 102 -140 136
-178 62 -67 62 -67 116 -67 l54 0 -99 98 c-191 189 -281 342 -370 630 -70 224
-71 233 -33 276 32 36 66 124 60 153 -3 12 -16 -7 -36 -49 -18 -38 -36 -68
-41 -68 -4 0 -5 16 -3 35 5 44 -4 45 -17 3 -7 -25 -9 -1 -10 97 0 84 5 143 13
168 19 53 2 46 -22 -10 -26 -58 -28 -32 -5 51 14 49 27 71 69 112 28 28 65 56
83 63 43 18 39 31 -10 31 -37 0 -40 2 -28 16 13 15 8 16 -56 10 l-70 -7 70 41
c39 23 81 47 95 52 40 17 4 22 -48 7 -25 -7 -75 -32 -109 -56 -35 -24 -63 -39
-63 -35 0 4 23 33 50 64 60 67 117 97 208 108 72 9 142 34 142 50 0 6 -10 10
-21 10 -12 0 -39 5 -60 12 -29 8 -49 8 -74 1 -19 -6 -35 -8 -35 -3 0 12 119
60 150 60 42 0 44 14 5 33 -19 9 -35 23 -35 31 0 19 60 70 126 107 48 28 63
39 50 39 -3 0 -62 -29 -133 -65z"/>
<path d="M1055 1766 c-17 -7 -44 -29 -59 -47 -20 -23 -36 -33 -51 -31 -20 3
-518 -199 -538 -217 -4 -5 -1 -14 8 -21 14 -12 132 26 512 167 10 4 11 -25 6
-126 -8 -164 4 -199 79 -237 100 -51 303 -73 367 -40 47 25 105 114 131 204
15 47 27 51 89 26 42 -17 47 -28 50 -104 1 -25 17 -83 35 -130 19 -47 37 -98
41 -113 13 -63 193 -108 245 -62 13 11 41 58 63 105 71 148 60 261 -31 324
-42 29 -402 178 -585 242 -123 43 -249 74 -297 74 -19 -1 -49 -7 -65 -14z
m228 -57 c144 -36 217 -99 217 -187 0 -73 -65 -218 -119 -267 -31 -27 -128
-32 -232 -10 -147 29 -179 64 -179 192 0 149 33 257 88 288 33 19 108 14 225
-16z m334 -116 l122 -49 -36 -28 -36 -29 -51 18 c-66 23 -96 42 -96 61 0 8
-12 32 -27 52 -16 20 -21 33 -13 29 8 -3 70 -28 137 -54z m291 -128 c106 -51
132 -82 132 -156 0 -89 -61 -241 -104 -261 -28 -12 -115 11 -153 40 -12 9 -38
58 -59 107 -29 70 -37 104 -38 155 -1 56 2 65 17 65 9 0 16 -4 15 -10 -2 -5
-7 -9 -11 -7 -20 6 1 -34 23 -45 20 -10 27 -9 42 4 10 9 18 22 18 30 0 8 5 11
10 8 6 -3 10 -1 10 5 0 27 -23 50 -60 61 -44 13 -49 23 -22 38 35 21 88 11
180 -34z"/>
<path d="M1155 1649 c-17 -4 -44 -23 -60 -41 -29 -31 -30 -32 -4 -15 29 17 39
14 39 -15 0 -20 36 -38 76 -38 19 0 29 9 41 38 l16 37 12 -28 c14 -34 27 -25
14 10 -12 31 -11 36 2 27 7 -4 10 -1 7 7 -8 25 -85 35 -143 18z m51 -30 c10
-17 -13 -36 -27 -22 -12 12 -4 33 11 33 5 0 12 -5 16 -11z"/>
<path d="M1264 1161 c-18 -11 -67 -52 -110 -91 -44 -40 -89 -76 -102 -81 -53
-21 -147 -1 -256 52 -32 16 -60 29 -63 29 -14 0 98 -80 144 -104 53 -26 151
-56 186 -56 24 0 126 97 133 127 10 38 110 123 145 123 18 0 28 4 24 10 -10
16 -68 11 -101 -9z"/>
<path d="M1310 1105 c0 -18 28 -31 82 -40 48 -7 98 -49 98 -81 0 -17 4 -22 15
-18 12 5 15 -2 15 -27 0 -69 -8 -80 -54 -77 -32 2 -41 7 -40 21 2 15 -9 17
-87 17 -54 0 -89 4 -89 10 0 16 -58 -17 -70 -40 -8 -15 -4 -33 19 -85 17 -36
40 -79 52 -96 l21 -31 32 29 c58 54 60 54 112 43 27 -6 64 -23 82 -37 25 -18
36 -22 42 -14 12 20 69 -54 76 -99 7 -46 15 -49 44 -18 31 34 28 133 -5 178
-14 19 -23 41 -20 49 6 16 -22 40 -47 41 -10 0 -18 8 -18 17 0 13 -3 14 -12 5
-20 -20 -27 -13 -15 17 6 17 15 27 19 25 5 -3 11 8 14 25 6 29 24 44 24 21 0
-6 11 -8 25 -4 15 4 25 2 25 -5 0 -6 7 -8 15 -5 10 4 20 -4 30 -27 12 -28 14
-30 15 -11 0 22 -30 61 -50 63 -5 1 -13 3 -17 4 -5 1 -26 5 -48 9 -33 7 -45
16 -67 52 -31 50 -75 74 -136 74 -23 0 -45 6 -52 15 -16 19 -30 19 -30 0z
m105 -254 c50 -10 112 -30 138 -43 l48 -25 -48 2 c-26 0 -62 8 -79 18 -17 9
-64 25 -104 36 -127 35 -100 42 45 12z"/>
<path d="M25 1070 c-4 -22 -11 -42 -16 -46 -5 -3 -9 -26 -9 -52 l0 -46 21 21
c17 16 23 37 27 92 5 78 -11 100 -23 31z"/>
<path d="M1762 772 c-22 -83 -22 -90 -7 -139 9 -29 18 -53 21 -53 3 0 3 26 0
58 -4 31 -2 93 4 136 5 44 9 81 7 82 -1 2 -13 -36 -25 -84z"/>
<path d="M424 167 c137 -135 175 -167 197 -167 28 0 27 1 -19 43 -59 54 -230
199 -297 252 -27 22 26 -36 119 -128z"/>
</g>
</svg>
